<?xml version="1.0" encoding="UTF-8" standalone="no"?>
<!-- Generator: Adobe Illustrator 21.1.0, SVG Export Plug-In . SVG Version: 6.00 Build 0)  -->

<svg
   xmlns:dc="http://purl.org/dc/elements/1.1/"
   xmlns:cc="http://creativecommons.org/ns#"
   xmlns:rdf="http://www.w3.org/1999/02/22-rdf-syntax-ns#"
   xmlns:svg="http://www.w3.org/2000/svg"
   xmlns="http://www.w3.org/2000/svg"
   xmlns:sodipodi="http://sodipodi.sourceforge.net/DTD/sodipodi-0.dtd"
   xmlns:inkscape="http://www.inkscape.org/namespaces/inkscape"
   version="1.1"
   id="Aloft"
   x="0px"
   y="0px"
   viewBox="0 0 315.86401 110.947"
   xml:space="preserve"
   sodipodi:docname="JW Marriott.svg"
   width="315.86401"
   height="110.947"
   inkscape:version="0.92.2 5c3e80d, 2017-08-06"><metadata
     id="metadata903"><rdf:RDF><cc:Work
         rdf:about=""><dc:format>image/svg+xml</dc:format><dc:type
           rdf:resource="http://purl.org/dc/dcmitype/StillImage" /><dc:title></dc:title></cc:Work></rdf:RDF></metadata><defs
     id="defs901" /><sodipodi:namedview
     pagecolor="#ffffff"
     bordercolor="#666666"
     borderopacity="1"
     objecttolerance="10"
     gridtolerance="10"
     guidetolerance="10"
     inkscape:pageopacity="0"
     inkscape:pageshadow="2"
     inkscape:window-width="1680"
     inkscape:window-height="931"
     id="namedview899"
     showgrid="false"
     inkscape:zoom="1.3090909"
     inkscape:cx="58.739198"
     inkscape:cy="32.426673"
     inkscape:window-x="0"
     inkscape:window-y="1"
     inkscape:window-maximized="1"
     inkscape:current-layer="g965" /><style
     type="text/css"
     id="style860">
	.st0{fill:#66615D;}
</style><g
     transform="matrix(2.0885054,0,0,2.1283656,-1.9741423,-58.19117)"
     id="g965"><g
       id="g959"
       transform="translate(-0.05475835,0.06856969)"><g
         id="g955"><g
           id="g935"><path
             style="fill:#66615d"
             inkscape:connector-curvature="0"
             id="path931"
             d="m 31.2,64.2 0.4,0.3 c 0,0 0.1,0.1 0.1,0.1 0.6,0.4 0.9,0.9 1.1,1.6 0.1,0.8 0.1,1.6 -0.2,2.5 -0.4,1.2 -0.8,2.5 -1.2,3.7 l -0.2,0.5 c -0.3,0.8 -0.5,1.6 -0.8,2.4 L 30.2,76 C 29.9,75.2 29.7,74.5 29.4,73.7 L 29,72.6 C 28.3,70.7 27.7,68.9 27,67 26.7,66.1 26.9,65.4 27.6,64.8 l 0.6,-0.5 h -6 l 0.2,0.3 c 0.1,0.1 0.2,0.2 0.3,0.3 0.2,0.2 0.4,0.5 0.6,0.8 0.6,0.8 0.9,1.8 1.3,2.7 0,0 0,0.1 0,0.2 -0.8,2.2 -1.7,4.5 -2.5,6.7 -0.1,0.3 -0.2,0.5 -0.3,0.8 v 0 L 21.3,74.6 C 20.9,73.2 20.4,71.9 20,70.5 19.5,69 19.2,67.8 18.9,66.6 c -0.2,-0.7 0,-1.3 0.6,-1.7 l 0.7,-0.6 h -5.8 l 0.2,0.3 c 0.1,0.1 0.2,0.3 0.3,0.4 0.2,0.3 0.4,0.6 0.6,0.9 0.5,1.1 0.9,2.2 1.3,3.2 1.1,3.1 3.3,9.8 3.3,9.8 V 79 h 0.1 c 0.3,0.1 0.6,0.1 0.9,0.1 0.4,0 0.7,0 0.9,-0.1 h 0.1 v -0.1 c 0,0 2.2,-6 3.2,-8.8 V 70 c 1.1,3 3.2,8.8 3.2,8.8 v 0.1 h 0.1 c 0.3,0.1 0.6,0.1 0.9,0.1 0.4,0 0.7,0 1,-0.1 h 0.1 v -0.1 c 0,0 1.2,-3.6 1.8,-5.2 0.8,-2.3 1.6,-4.4 2.4,-6.3 0.4,-1.1 1,-2 1.8,-2.6 0,0 0.1,-0.1 0.1,-0.1 l 0.2,-0.3 z"
             class="st0" /><path
             style="fill:#66615d"
             inkscape:connector-curvature="0"
             id="path933"
             d="m 6.9,64.7 c 0.8,0.4 1.2,1 1.3,1.8 v 0.1 c 0.2,0.4 0.3,0.9 0.3,1.4 0,2 0,4.2 0.1,6 v 0 0.7 c 0,2.4 -0.9,3.7 -2.5,3.7 -1.4,0 -2.4,-1 -2.4,-2.5 0,-0.3 0,-0.5 0.1,-0.8 V 75 L 1,75.8 v 0.1 c 0.2,2 2.2,3.5 5,3.5 1.5,0 2.8,-0.4 3.8,-1.2 1,-0.8 1.6,-2.1 1.6,-3.6 v 0 0 c 0,-0.5 0,-0.9 0,-1.3 0,-1.1 0,-1.9 0,-3.4 0,-1.1 0.1,-2.2 0.1,-3.2 0.1,-0.9 0.4,-1.6 1.1,-2 0.1,0 0.2,-0.1 0.2,-0.1 l 0.4,-0.3 h -7 z"
             class="st0" /></g><g
           id="g953"><path
             style="fill:#66615d"
             inkscape:connector-curvature="0"
             id="path937"
             d="M 49.8,79 H 49 L 44.9,69 c -0.6,-1.4 -1.1,-2.7 -1.3,-3.4 v 0 c 0.1,0.7 0.1,2.5 0.1,3.8 V 79 H 42.9 V 64.2 h 1 l 4.7,11.4 c 0.4,1 0.7,1.6 0.8,2.2 v 0 c 0.2,-0.6 0.4,-1.1 0.8,-2.2 l 4.4,-11.4 h 1.1 V 79 h -0.8 v -9.4 c 0,-1.3 0,-3.6 0.1,-4.2 v 0 c -0.2,0.6 -0.6,2 -1.2,3.4 z"
             class="st0" /><path
             style="fill:#66615d"
             inkscape:connector-curvature="0"
             id="path939"
             d="m 60.6,79 h -0.9 l 5.5,-14.7 h 1 L 71.8,79 H 71 l -1.7,-4.6 h -7 z m 6.1,-11.4 c -0.3,-0.8 -0.7,-2 -0.9,-2.7 -0.3,0.7 -0.7,1.9 -1,2.6 l -2.3,6 h 6.4 z"
             class="st0" /><path
             style="fill:#66615d"
             inkscape:connector-curvature="0"
             id="path941"
             d="M 86.8,79 H 85.7 L 81,72.2 H 76.7 V 79 H 75.9 V 64.2 h 5 c 1.6,0 2.5,0.2 3.2,0.4 1.4,0.6 2.3,1.8 2.3,3.6 0,1.4 -0.5,2.4 -1.4,3 -0.8,0.6 -1.8,0.8 -3,0.9 z m -6,-7.5 c 1.6,0 2.7,-0.2 3.6,-0.8 0.7,-0.5 1.1,-1.3 1.1,-2.4 0,-1.1 -0.5,-2 -1.4,-2.5 -0.8,-0.5 -1.7,-0.7 -3.3,-0.7 h -4.1 v 6.4 z"
             class="st0" /><path
             style="fill:#66615d"
             inkscape:connector-curvature="0"
             id="path943"
             d="m 102.3,79 h -1.1 L 96.4,72.3 H 92.1 V 79 H 91.3 V 64.2 h 5 c 1.6,0 2.5,0.2 3.2,0.4 1.4,0.6 2.3,1.8 2.3,3.6 0,1.4 -0.5,2.4 -1.4,3 -0.8,0.6 -1.8,0.8 -3,0.9 z m -6,-7.5 c 1.6,0 2.7,-0.2 3.6,-0.8 0.7,-0.5 1.1,-1.3 1.1,-2.4 0,-1.1 -0.5,-2 -1.4,-2.5 -0.8,-0.5 -1.7,-0.7 -3.3,-0.7 h -4.1 v 6.4 z"
             class="st0" /><path
             style="fill:#66615d"
             inkscape:connector-curvature="0"
             id="path945"
             d="m 107.7,79 h -0.8 V 64.2 h 0.8 z"
             class="st0" /><path
             style="fill:#66615d"
             inkscape:connector-curvature="0"
             id="path947"
             d="m 118.6,64 c 3.9,0 6.2,3 6.2,7.6 0,4.6 -2.3,7.6 -6.2,7.6 -3.9,0 -6.2,-3 -6.2,-7.6 0,-4.6 2.4,-7.6 6.2,-7.6 z m 0,14.5 c 3.2,0 5.4,-2.7 5.4,-6.9 0,-4.1 -2.1,-6.9 -5.4,-6.9 -3.3,0 -5.4,2.7 -5.4,6.9 0.1,4.2 2.2,6.9 5.4,6.9 z"
             class="st0" /><path
             style="fill:#66615d"
             inkscape:connector-curvature="0"
             id="path949"
             d="M 126.9,64.2 H 138 V 65 h -5.1 V 79 H 132 V 65 h -5.1 z"
             class="st0" /><path
             style="fill:#66615d"
             inkscape:connector-curvature="0"
             id="path951"
             d="M 140.9,64.2 H 152 V 65 h -5.1 V 79 H 146 V 65 h -5.1 z"
             class="st0" /></g></g><path
         style="fill:#66615d"
         inkscape:connector-curvature="0"
         id="path957"
         d="m 93.9,27.4 c -0.2,-0.1 -0.4,0.7 -2.9,1.3 -1.5,0.4 -3,0.7 -4.5,0.5 -7.5,-0.7 -8.9,-1.3 -10.8,1.9 -0.3,0.7 -0.6,1.3 -1,1.7 -0.1,-0.5 -0.4,-1 -0.7,-1.4 0.1,0 0.2,-0.1 0.1,-0.1 -0.2,-0.2 -0.2,-0.4 -0.4,-0.4 v 0 c 0.2,0.1 0.4,0.2 0.4,0 -0.1,0 -0.5,-0.6 -0.5,-0.6 0,0 0.2,0 0.3,0.1 -0.2,-0.4 -0.3,-0.5 -0.3,-0.5 0,0 0.3,0.1 0.3,0.1 0,0 -0.2,-0.4 -0.3,-0.5 0.1,-0.2 -0.3,-1 -0.3,-1.2 0,-0.4 -0.2,-0.7 -0.5,-1 -0.1,-0.1 -0.3,0.1 -0.4,0.1 -0.3,0.3 -0.4,0.2 -0.5,0.2 -0.1,0.1 -0.1,0.2 -0.2,0.3 0,0 -0.1,0.1 -0.1,0.1 -0.1,0 -0.1,0 -0.1,-0.1 -0.1,0.2 -0.3,0.2 -0.3,0.2 0,0 -0.1,0 -0.1,-0.1 -0.3,0.3 -0.3,0.3 -0.4,0.3 -0.9,-0.2 -2.6,-0.4 -3.7,0 0,0 -0.6,0.2 -0.7,0.6 0,0 -1,0 -1.6,0.8 0,0 -0.4,0.5 -0.1,1.2 0,0.1 0.1,0.1 0.1,0.2 0,0 0.1,0 0.1,0 0,-0.1 0,-0.2 0.1,-0.3 0,0 0.2,-0.2 0.6,-0.1 0.4,0.1 0.7,0 0.9,0 0,0 0.5,-0.1 1,0.4 0.7,0.8 1.1,0.9 1.3,1 0.1,0 0.2,0.2 0.2,0.5 -0.1,0 -0.1,0 -0.2,0.2 -0.1,0.3 -0.8,1.1 -1.2,1.4 0,0 -1,0.4 -0.6,0.4 0.2,0 0.3,0.2 0.3,0.2 0,0 -0.2,0 -0.5,0.2 -0.5,0.3 -0.7,0.7 -0.6,0.6 0.3,-0.1 0.8,-0.1 0.6,0.1 -0.3,0.2 -0.7,0.4 -0.9,0.8 0.2,0 0.4,0.2 0.4,0.2 -0.4,0.5 -0.5,0.7 -0.6,0.9 -0.1,0.2 0.4,0.5 0.4,0.5 -0.2,0.4 -0.4,0.7 -0.7,0.9 0.1,0.1 0.6,-0.1 0.6,-0.1 0,0 -0.2,0.3 -0.3,0.7 0,0.2 0,0.2 0,0.3 0.1,0 0.1,0 0.3,-0.1 -0.1,0.2 -0.1,0.3 -0.1,0.4 0.1,0 0.1,0 0.2,0 0,0.2 -0.1,0.4 0,0.5 0.1,0 0.2,-0.2 0.2,-0.2 0.1,0.2 -0.1,0.7 -0.1,0.7 0.3,0 0,0.7 0.1,0.9 0,0 0.2,0 0.3,-0.2 0.1,-0.1 -0.2,0.7 -0.2,0.9 0,0 0.1,-0.1 0.2,-0.1 0,0.4 0.1,0.7 -0.1,1.3 0,0.1 -0.1,0.4 -0.1,0.4 0,0.1 0.3,0 0.2,0.1 -0.1,0.2 0.1,0.6 0.1,0.6 0,0.1 0,0.2 0,0.2 -0.1,0.2 -0.1,0.5 0,0.4 0.1,-0.1 0.1,0 0.2,-0.1 0,0.3 0.1,0.6 -0.1,0.9 0.3,0 0.3,0 0.3,0.1 0,0.3 -0.1,0.4 -0.1,0.5 0.1,-0.1 0.3,0 0.2,0.1 -0.1,0.2 -0.1,0.5 0,0.6 0.2,0 0.2,-0.1 0.2,-0.1 0,0 0,0.3 0,0.6 0,0.1 0,0.3 -0.2,0.3 0.1,0.1 0.2,0 0.3,-0.1 0,0.1 0,0.2 0,0.3 -0.5,0.2 -0.7,0.5 -1,0.4 -0.4,-0.1 -0.5,-0.1 -0.6,0 -0.1,0 -0.3,0.1 -0.3,0.1 0,0 -0.1,0 -0.3,0.1 -0.2,0.1 -0.4,0.5 -0.4,0.7 0,0.1 0,0.2 0.1,0.2 0,0 0.2,-0.4 0.5,-0.4 0.2,0 0.1,0 0.2,0.1 0.1,0 0.4,0.2 0.6,0.1 0.2,-0.1 0.7,-0.1 0.9,-0.1 -0.1,0.1 -0.3,0.3 -0.3,0.3 -0.2,0 -0.5,0 -0.7,0.6 -0.1,0.1 -0.2,0.5 -0.2,0.7 0,0.1 0,0.2 0.1,0.2 0.1,0 0.1,-0.3 0.3,-0.4 0.1,-0.1 0.6,0 0.9,-0.3 0.4,-0.3 0.3,-0.4 0.7,-0.7 0.2,-0.2 0.5,-0.7 0.9,-0.5 0.3,0.2 0.7,0.3 0.6,0.6 -0.1,0.1 0,0.2 -0.1,0.3 0,0.2 -0.1,0.4 -0.1,0.4 0.1,0.1 0.4,-0.3 0.5,-0.4 0.1,-0.1 0.2,-0.5 0.1,-0.6 0.1,-0.8 -0.3,-1.1 -0.3,-1.1 0,0 0.2,-0.2 0.1,-0.2 -0.1,0 -0.2,-0.1 -0.2,-0.1 0.1,-0.2 0.2,-0.6 0.3,-0.6 0.1,0 0.4,0.4 0.3,0.1 -0.1,-0.3 -0.1,-0.5 -0.1,-0.6 v 0 c 0,-0.1 0.1,0 0.1,0 0.2,0.1 0.3,0.6 0.2,0 0,-0.6 -0.2,-1.2 -0.2,-1.2 0,0 0.1,0.1 0.3,0.1 0.1,-0.3 -0.2,-0.9 -0.2,-0.9 0,0 0.4,0.6 0.1,-0.4 0,-0.1 0.1,-0.3 0,-0.5 0,0 -0.1,0.1 0,-0.5 0.2,0.1 0.3,0.2 0.4,0.3 0.2,0.1 0.4,0.1 0.6,0 0.2,0.1 0.5,0.2 0.6,0.1 0.1,0.1 0.2,0 0.3,0 0.1,0 0.2,0.1 0.3,0 0.1,0 -1,1.1 0.6,3.2 0.6,0.7 1.9,1 2,1.2 C 74.5,49 73.3,49 73,49 c -1.4,-0.1 -1.6,0 -2,0.6 -0.1,0 -0.2,0.1 -0.2,0.3 -0.1,0.1 -0.1,0.6 0,0.5 0.1,-0.1 0.2,-0.1 0.2,-0.2 0.1,0.1 0.2,0.1 0.2,0.2 0,0.1 0,0.3 0.1,0.4 0.1,0 0.1,-0.1 0.1,-0.2 0,0 0,0 0,0 0.2,0 0.2,0.1 0.3,0.2 0,0.1 0,0.2 0.1,0.2 0,0 0.1,-0.1 0.1,-0.1 0.9,0.2 1.5,-0.1 2.4,-0.1 0.7,0 1.5,0 1.7,0 0.4,0.1 1.5,-0.3 1.5,-0.3 0.2,0 1.3,0.2 2.5,0 0.6,-0.1 1.1,-0.1 1.6,-0.4 0.1,-0.1 0.6,-0.3 0.6,-0.4 0.6,-0.4 1.3,-1.1 1.5,-1.7 0.4,-1 0.6,-1.7 0.6,-2.4 0,-0.4 0,-0.8 -0.3,-1.6 -0.6,-1.7 -0.4,-2.2 -0.3,-2.6 0.1,-0.1 0.2,-0.4 0.5,-0.5 0.2,0.2 0.3,0.1 0.5,0.2 0.2,0.1 0.3,0.2 0.4,0.3 0.3,0.2 0.5,0.3 0.8,0.3 0.1,0 0.3,0 0.4,0 0,-0.1 0.1,-0.1 0.1,-0.2 0.1,0.1 0.3,0.2 0.4,0.2 0,-0.1 0,-0.2 -0.1,-0.3 0.1,0 0.3,0.2 0.4,0.2 0.1,0 0.1,0 0.2,0 0,0 0,-0.1 0.1,-0.2 0,0 0,0 0,0 0,0 0.2,0 0.2,0 0.1,0 0.1,0 0.1,-0.1 0.1,0 0.2,0 0.4,-0.1 -0.2,-0.3 -0.4,-0.3 -0.7,-0.4 0.1,-0.1 0.2,-0.2 0.3,-0.3 0,0 -0.1,0 -0.1,0 -0.1,0 -0.1,0 -0.2,-0.1 -0.1,0 -0.2,-0.1 -0.3,-0.2 -0.1,0 -0.1,-0.1 -0.1,-0.1 0,0 0,0 0,-0.1 -0.2,-0.2 -0.2,-0.3 -0.4,-0.4 -0.1,0 -0.4,-0.2 -0.5,-0.2 -0.4,-0.1 -0.8,-0.1 -1.1,-0.1 -0.3,0.1 -0.8,0.4 -1.1,0.6 -0.4,0.2 -0.4,0.3 -0.4,0.3 -0.6,0.4 -1,1.7 -0.7,3.4 0.2,0.8 0.1,0.5 0.2,1 0.4,2 -1.1,3.3 -1.8,3.7 0,0 0,0 0,0 0.2,-0.3 0.4,-0.7 0.5,-1.1 0.2,-0.7 0.4,-1.9 0.2,-2.6 -0.1,-0.5 -0.4,-1.2 -0.6,-1.5 0.1,0.1 0.1,0 0.3,0 -0.4,-0.2 -0.9,-1.2 -1.1,-1.4 0.1,0 0.1,0 0.2,-0.1 -0.3,-0.2 -1,-0.9 -1,-0.9 0,0 0.2,0 0.3,0 0.1,0 -0.8,-0.4 -1.1,-0.8 -0.1,-0.2 0,-0.4 0.1,-0.3 0.5,0.3 0.9,0.2 1.1,0.1 -0.1,-0.3 -0.6,-0.6 -0.6,-0.6 0.2,0.1 0.5,0.1 0.5,0.1 0.4,0.1 0.5,0.1 0.7,0 -0.1,-0.2 -0.7,-0.4 -0.8,-0.6 0.4,0.1 0.6,0.2 1,0.2 0,0 -0.1,-0.2 -0.1,-0.3 0.3,0.1 0.8,0.3 1,0.1 0,0 -0.9,-0.8 -1.3,-1.5 -0.1,-0.3 0.8,0.8 1.6,0.9 0.2,-0.1 0.1,-0.4 -0.1,-0.6 -0.1,-0.2 0.7,0.3 0.7,0.3 0,0 0,-0.4 -0.3,-0.8 0.1,0.1 1.1,0.3 1.2,0.2 0.2,-0.1 -0.2,-0.6 -0.2,-0.6 0,0 0.7,0.3 0.9,0.3 0.2,0 0.2,-0.1 0.2,-0.1 0,-0.2 0,-0.4 -0.2,-0.7 -0.2,-0.4 -1.5,-2.3 0,-0.7 0.2,0.2 0.8,0.8 1,0.8 0.2,0 -0.2,-0.7 -0.2,-0.7 0,0 0.5,0.3 0.9,0.4 0.2,0 -0.1,-0.6 -0.2,-0.7 -0.3,-0.3 -0.4,-0.5 -0.9,-0.8 -0.3,-0.2 1.2,0.4 1.4,0.5 0.3,0.2 -0.3,-0.6 -0.3,-0.6 0.4,0 1.6,-0.2 1.6,-0.3 0.1,-0.1 -0.4,-0.4 -0.4,-0.4 h 0.2 c 0,0 1,0.1 1,-0.2 0,0 -2.4,-1.1 -2.3,-1.1 1.8,0.2 2.6,0.5 3.4,0.4 0.6,0 0.8,-0.3 0.8,-0.3 -0.1,-0.3 -1.5,-0.6 -1.5,-0.6 h 0.7 c 1.2,0 2.1,-0.6 2.1,-0.8 0,-0.2 -0.6,-0.3 -0.6,-0.3 -0.1,-0.1 0.9,-0.1 1.1,-0.5 0.9,-0.5 0.9,-0.8 0.9,-0.8 -0.1,-0.1 -0.5,0 -0.5,0 0,0 -0.7,0.2 -1.5,0.3 -0.9,0.1 -1.1,-0.1 -1.1,-0.1 2.8,-0.3 3.2,-1 3.3,-1.3 1,-0.2 0.7,-0.8 0.7,-0.8 M 65.7,38.5 v 0 c 0,0 0,0 0,0"
         class="st0" /></g></g></svg>